<svg xmlns="http://www.w3.org/2000/svg" xmlns:xlink="http://www.w3.org/1999/xlink" width="299.782" height="41.621" viewBox="0 0 299.782 41.621">
  <defs>
    <linearGradient id="linear-gradient" y1="0.5" x2="1" y2="0.5" gradientUnits="objectBoundingBox">
      <stop offset="0" stop-color="#f44852"/>
      <stop offset="0.021" stop-color="#e63a46"/>
      <stop offset="0.059" stop-color="#d52a38"/>
      <stop offset="0.105" stop-color="#c91e2e"/>
      <stop offset="0.17" stop-color="#c21728"/>
      <stop offset="0.347" stop-color="#c11627"/>
    </linearGradient>
    <linearGradient id="linear-gradient-2" y1="0.5" x2="1" y2="0.5" gradientUnits="objectBoundingBox">
      <stop offset="0" stop-color="#f44852"/>
      <stop offset="0.09" stop-color="#e23643"/>
      <stop offset="0.22" stop-color="#cf2433"/>
      <stop offset="0.355" stop-color="#c4192a"/>
      <stop offset="0.502" stop-color="#c11627"/>
    </linearGradient>
    <linearGradient id="linear-gradient-3" x1="-0.339" y1="-1.288" x2="0.658" y2="-1.288" gradientUnits="objectBoundingBox">
      <stop offset="0" stop-color="#262261"/>
      <stop offset="1" stop-color="#212189"/>
    </linearGradient>
    <linearGradient id="linear-gradient-4" y1="0.5" x2="1" y2="0.5" gradientUnits="objectBoundingBox">
      <stop offset="0" stop-color="#f44852"/>
      <stop offset="0.775" stop-color="#c11627"/>
    </linearGradient>
  </defs>
  <g id="FastLearner_logo_Beta_" data-name="FastLearner logo (Beta)" transform="translate(-120 -32.088)">
    <g id="Group_65226" data-name="Group 65226" transform="translate(120 32.088)">
      <path id="Path_106455" data-name="Path 106455" d="M271.977,1554.259l2.342,2.229-.5,1.946-2.222-1.47-.016,1.623-.54.14a12.71,12.71,0,0,0,.152-3.368C270.976,1554.069,271.977,1554.259,271.977,1554.259Z" transform="translate(-267.295 -1527.732)" fill="url(#linear-gradient)"/>
      <path id="Path_106456" data-name="Path 106456" d="M270.27,1530.611a5.352,5.352,0,0,0-3.068,6.087c.053.239.211.854.269,1.1a15.636,15.636,0,0,0,1.278,2.766l-.816-1.3c-1.7-2.8-2.136-6.407.256-9a6.5,6.5,0,0,1,1.32-1.171l.76,1.515Z" transform="translate(-264.956 -1514.705)" fill="#161e5d"/>
      <ellipse id="Ellipse_1089" data-name="Ellipse 1089" cx="1.484" cy="1.509" rx="1.484" ry="1.509" transform="translate(2.234 24.632) rotate(-1.774)" fill="url(#linear-gradient-2)"/>
      <path id="Path_106457" data-name="Path 106457" d="M335.977,1518.114l-38.339,16.448-34.369-21.217,36.388-14.1Z" transform="translate(-263.269 -1499.244)" fill="url(#linear-gradient-3)"/>
      <path id="Path_106458" data-name="Path 106458" d="M333.422,1519.139l-29.466,12.222-20.709-11.409-7.148-4.1,29.821-11.529Z" transform="translate(-269.914 -1501.875)" fill="url(#linear-gradient-4)"/>
      <g id="Group_65225" data-name="Group 65225" transform="translate(15.756 6.187)">
        <path id="Path_106459" data-name="Path 106459" d="M312.446,1521.192l-11.611,4.7-4.882-2.824,11.6-4.572Z" transform="translate(-295.953 -1515.403)" fill="#fff"/>
        <path id="Path_106460" data-name="Path 106460" d="M330.081,1512.078l-5.912,2.331,13.313,7.261-5.31,2.25,5.231,2.919,11.2-4.882-5.155-2.742.031-.013Z" transform="translate(-310.567 -1512.078)" fill="#fff"/>
        <path id="Path_106461" data-name="Path 106461" d="M321.2,1525.955,309.59,1530.7l.868.5-.008,0,11.082,6.409,6.24-2.719-6.907-3.888,5.4-2.267Z" transform="translate(-303.016 -1519.266)" fill="#fff"/>
      </g>
      <ellipse id="Ellipse_1090" data-name="Ellipse 1090" cx="1.589" cy="1.108" rx="1.589" ry="1.108" transform="translate(49.1 24.828) rotate(-18.439)" fill="#fff"/>
      <path id="Path_106462" data-name="Path 106462" d="M334.632,1548.865l-1.055,5.556s-14.762,3.1-21.8,10.464c0,0-8.152-9.566-19.345-12.886l-1.653-6.377,20.891,12.731Z" transform="translate(-277.516 -1523.264)" fill="url(#linear-gradient-4)"/>
    </g>
    
    <g id="FastLearner" transform="translate(51.447 -50.178)" style="isolation: isolate">
      <g id="Group_66541" data-name="Group 66541" style="isolation: isolate">
        <path id="Path_107140" data-name="Path 107140" d="M165.651,91.318l-.768,4.321h-9.152l-.832,4.832h6.848l-.768,4.159h-6.848l-1.6,9.152h-5.472l3.968-22.464Z" fill="#212189"/>
        <path id="Path_107141" data-name="Path 107141" d="M167.283,99.99a10.073,10.073,0,0,1,3.392-3.2,8.4,8.4,0,0,1,4.192-1.12,6.064,6.064,0,0,1,3.168.768,4.559,4.559,0,0,1,1.856,2.016l.448-2.528h5.472l-3.168,17.856h-5.472l.48-2.528a7.67,7.67,0,0,1-2.592,2.017,7.767,7.767,0,0,1-3.456.767,6.425,6.425,0,0,1-3.344-.864A5.824,5.824,0,0,1,166,110.727a8.169,8.169,0,0,1-.8-3.729,13.259,13.259,0,0,1,.192-2.176A12.259,12.259,0,0,1,167.283,99.99Zm11.584,3.808a3.3,3.3,0,0,0-.912-2.464,3.175,3.175,0,0,0-2.32-.9,4.435,4.435,0,0,0-2.976,1.168,5.282,5.282,0,0,0-1.7,3.216,6.474,6.474,0,0,0-.1,1.056,3.35,3.35,0,0,0,.912,2.48,3.1,3.1,0,0,0,2.288.913,4.4,4.4,0,0,0,2.976-1.185,5.5,5.5,0,0,0,1.728-3.232A6.453,6.453,0,0,0,178.867,103.8Z" fill="#212189"/>
        <path id="Path_107142" data-name="Path 107142" d="M190.562,113.366a6.266,6.266,0,0,1-2.639-1.872,4.306,4.306,0,0,1-.961-2.767c0-.15.021-.416.065-.8h5.28a1.853,1.853,0,0,0,.591,1.584,2.7,2.7,0,0,0,1.873.593,3.373,3.373,0,0,0,1.7-.385,1.185,1.185,0,0,0-.049-2.159,16.425,16.425,0,0,0-2.383-.977,25.373,25.373,0,0,1-2.9-1.136,5.591,5.591,0,0,1-2-1.616,4.151,4.151,0,0,1-.832-2.656,4.676,4.676,0,0,1,.927-2.832,6.049,6.049,0,0,1,2.609-1.968,10,10,0,0,1,3.887-.7,9.44,9.44,0,0,1,3.841.721,5.9,5.9,0,0,1,2.528,2,4.9,4.9,0,0,1,.9,2.88l-.033.479H198a1.794,1.794,0,0,0-.575-1.536,2.636,2.636,0,0,0-1.824-.575,2.75,2.75,0,0,0-1.52.383,1.194,1.194,0,0,0-.592,1.056,1.347,1.347,0,0,0,.783,1.168,14.282,14.282,0,0,0,2.449,1.04,23.182,23.182,0,0,1,2.863,1.136,5.776,5.776,0,0,1,1.953,1.568,3.864,3.864,0,0,1,.815,2.512,4.5,4.5,0,0,1-1.04,2.977,6.486,6.486,0,0,1-2.847,1.9,12.02,12.02,0,0,1-4.113.656A10.144,10.144,0,0,1,190.562,113.366Z" fill="#212189"/>
        <path id="Path_107143" data-name="Path 107143" d="M212.53,107.639a2.227,2.227,0,0,0-.031.416.977.977,0,0,0,.335.831,1.841,1.841,0,0,0,1.1.257h1.953l-.832,4.639h-2.785q-5.376,0-5.376-4.511a11.226,11.226,0,0,1,.161-1.7l1.279-7.1h-2.175l.8-4.545h2.176l.768-4.352h5.472l-.768,4.352h3.584l-.8,4.545h-3.584Z" fill="#212189"/>
      </g>
      <g id="Group_66542" data-name="Group 66542" style="isolation: isolate">
        <path id="Path_107144" data-name="Path 107144" d="M221.586,112.022h8.032l-.32,1.76H219.026l3.936-22.368h2.24Z" fill="#212189"/>
        <path id="Path_107145" data-name="Path 107145" d="M245.361,96.9a5.815,5.815,0,0,1,2.385,2.321,6.808,6.808,0,0,1,.816,3.359,8.3,8.3,0,0,1-.128,1.536q-.192.96-.384,1.729h-14.5a7.27,7.27,0,0,0-.1,1.151,4.872,4.872,0,0,0,1.487,3.809,5.447,5.447,0,0,0,3.792,1.343,7.067,7.067,0,0,0,3.872-1.056,6.191,6.191,0,0,0,2.433-2.848h2.4a9.4,9.4,0,0,1-3.471,4.176,9.655,9.655,0,0,1-5.552,1.616,7.277,7.277,0,0,1-5.232-1.872,6.708,6.708,0,0,1-1.968-5.1,11.28,11.28,0,0,1,.192-2.017,11.569,11.569,0,0,1,1.936-4.768,9.839,9.839,0,0,1,3.6-3.135,10.1,10.1,0,0,1,4.641-1.088A7.835,7.835,0,0,1,245.361,96.9Zm.929,5.777a4.313,4.313,0,0,0-1.44-3.489,5.511,5.511,0,0,0-3.68-1.215,7.27,7.27,0,0,0-5.76,2.815,7.968,7.968,0,0,0-1.536,3.393H246.13A8.9,8.9,0,0,0,246.29,102.679Z" fill="#212189"/>
        <path id="Path_107146" data-name="Path 107146" d="M251.634,100.294a10.02,10.02,0,0,1,3.536-3.136,9.5,9.5,0,0,1,4.5-1.1,6.845,6.845,0,0,1,4.1,1.151,5.232,5.232,0,0,1,2.08,2.944l.672-3.839h2.24l-3.072,17.471h-2.241l.672-3.872a8.506,8.506,0,0,1-3.12,2.96,8.913,8.913,0,0,1-4.527,1.168,7.438,7.438,0,0,1-3.649-.864,6.03,6.03,0,0,1-2.431-2.447,7.674,7.674,0,0,1-.865-3.729,11.111,11.111,0,0,1,.193-1.983A11.552,11.552,0,0,1,251.634,100.294Zm13.5,3.152a5.116,5.116,0,0,0-5.409-5.44,7.477,7.477,0,0,0-3.471.832,7.59,7.59,0,0,0-2.737,2.416,9.164,9.164,0,0,0-1.5,3.761,10.024,10.024,0,0,0-.161,1.631,5.069,5.069,0,0,0,5.376,5.44,7.331,7.331,0,0,0,3.441-.863,7.889,7.889,0,0,0,2.783-2.465,9.14,9.14,0,0,0,1.521-3.712A9.262,9.262,0,0,0,265.138,103.446Z" fill="#212189"/>
        <path id="Path_107147" data-name="Path 107147" d="M276.657,96.982a7.658,7.658,0,0,1,3.937-.992l-.416,2.336h-.641a6.676,6.676,0,0,0-3.968,1.184,6.346,6.346,0,0,0-2.3,3.9l-1.825,10.368H269.2l3.072-17.471h2.241L273.9,99.8A7.589,7.589,0,0,1,276.657,96.982Z" fill="#212189"/>
        <path id="Path_107148" data-name="Path 107148" d="M294.85,97.446a5.416,5.416,0,0,1,1.616,4.241,9.918,9.918,0,0,1-.16,1.855l-1.825,10.24h-2.208l1.76-9.984a9.174,9.174,0,0,0,.128-1.568,4.2,4.2,0,0,0-1.151-3.2,4.532,4.532,0,0,0-3.233-1.088,6.264,6.264,0,0,0-4.32,1.6,7.9,7.9,0,0,0-2.336,4.7v-.1l-1.7,9.632h-2.24l3.072-17.471H284.5l-.544,3.007a7.562,7.562,0,0,1,2.849-2.464,8.247,8.247,0,0,1,3.743-.864A6.2,6.2,0,0,1,294.85,97.446Z" fill="#212189"/>
        <path id="Path_107149" data-name="Path 107149" d="M312.3,96.9a5.807,5.807,0,0,1,2.384,2.321,6.808,6.808,0,0,1,.816,3.359,8.3,8.3,0,0,1-.128,1.536q-.192.96-.384,1.729H300.5a7.391,7.391,0,0,0-.1,1.151,4.87,4.87,0,0,0,1.488,3.809,5.448,5.448,0,0,0,3.792,1.343,7.072,7.072,0,0,0,3.872-1.056,6.189,6.189,0,0,0,2.432-2.848h2.4a9.413,9.413,0,0,1-3.472,4.176,9.653,9.653,0,0,1-5.552,1.616,7.279,7.279,0,0,1-5.232-1.872,6.708,6.708,0,0,1-1.968-5.1,11.286,11.286,0,0,1,.193-2.017,11.567,11.567,0,0,1,1.935-4.768,9.842,9.842,0,0,1,3.6-3.135,10.1,10.1,0,0,1,4.64-1.088A7.839,7.839,0,0,1,312.3,96.9Zm.928,5.777a4.313,4.313,0,0,0-1.44-3.489,5.511,5.511,0,0,0-3.68-1.215,7.27,7.27,0,0,0-5.759,2.815,7.969,7.969,0,0,0-1.537,3.393h12.256A8.8,8.8,0,0,0,313.233,102.679Z" fill="#212189"/>
        <path id="Path_107150" data-name="Path 107150" d="M323.6,96.982a7.652,7.652,0,0,1,3.936-.992l-.416,2.336h-.641a6.67,6.67,0,0,0-3.967,1.184,6.347,6.347,0,0,0-2.3,3.9l-1.824,10.368h-2.24l3.072-17.471h2.24l-.608,3.487A7.589,7.589,0,0,1,323.6,96.982Z" fill="#212189"/>
      </g>
    </g>
  </g>
</svg>
